<?xml version="1.0" encoding="utf-8"?>
<!-- Generator: Adobe Illustrator 24.2.3, SVG Export Plug-In . SVG Version: 6.00 Build 0)  -->
<svg version="1.1" id="Layer_1" xmlns="http://www.w3.org/2000/svg" xmlns:xlink="http://www.w3.org/1999/xlink" x="0px" y="0px"
	 viewBox="0 0 400 400" style="enable-background:new 0 0 400 400;" xml:space="preserve">
<style type="text/css">
	.st0{fill:#2D2A26;}
	.st1{fill:#FFFFFF;}
	.st2{fill:#F6B318;}
</style>
<g>
	<path class="st0" d="M78.38,235.22l-6.04-42.99c-1.31-9.34,3.91-16.27,13.25-17.59c9.25-1.3,16.29,4,17.58,13.25l1.18,8.41
		l-11.22,1.58l-1.29-9.16c-0.35-2.52-2.27-3.97-4.79-3.62c-2.52,0.36-3.97,2.28-3.62,4.8l6.25,44.48c0.36,2.53,2.27,3.97,4.8,3.62
		c2.52-0.35,3.97-2.27,3.62-4.8l-1.29-9.16l11.21-1.58l1.18,8.41c1.31,9.34-3.91,16.27-13.25,17.59
		C86.72,249.77,79.68,244.47,78.38,235.22"/>
	<polygon class="st0" points="104.01,173.49 115.22,171.91 119.48,202.19 127.89,201.01 123.63,170.73 134.85,169.15 144.83,240.17 
		133.62,241.75 129.36,211.47 120.95,212.65 125.2,242.93 113.99,244.51 	"/>
	<path class="st0" d="M148,225.43l-8.01-57.01l11.21-1.58l8.12,57.75c0.36,2.52,2.27,3.97,4.79,3.61c2.52-0.35,3.97-2.27,3.62-4.8
		l-8.12-57.75l11.22-1.58l8.01,57c1.31,9.34-3.91,16.27-13.25,17.59C156.33,239.99,149.3,234.69,148,225.43"/>
	<path class="st0" d="M175.96,163.37l15.42-2.17c9.25-1.3,16.29,4,17.58,13.25l1.97,14.02c0.84,5.98-1.03,11.01-4.97,14.14
		l23.28,50.82l-11.68,1.64l-22.31-48.66l-1.78,0.25l3.68,26.17l-11.21,1.58L175.96,163.37z M196.21,195.6
		c2.52-0.36,3.97-2.27,3.62-4.8l-2.18-15.51c-0.36-2.52-2.28-3.97-4.8-3.62l-4.21,0.59l3.36,23.92L196.21,195.6z"/>
	<path class="st0" d="M219.01,215.45l-6.04-42.99c-1.31-9.34,3.91-16.27,13.25-17.59c9.25-1.3,16.29,4,17.58,13.26l1.18,8.41
		l-11.22,1.58l-1.29-9.16c-0.35-2.52-2.27-3.97-4.79-3.61c-2.52,0.35-3.97,2.27-3.62,4.8l6.25,44.48c0.36,2.52,2.27,3.97,4.8,3.62
		c2.52-0.36,3.97-2.28,3.61-4.8l-1.29-9.16l11.21-1.58l1.18,8.41c1.31,9.34-3.91,16.27-13.25,17.59
		C227.34,230,220.31,224.7,219.01,215.45"/>
	<polygon class="st0" points="244.64,153.72 255.85,152.15 260.11,182.42 268.52,181.24 264.26,150.96 275.48,149.39 285.46,220.41 
		274.24,221.99 269.99,191.71 261.58,192.89 265.83,223.17 254.62,224.74 	"/>
	<path class="st0" d="M293.88,205.52l-1.18-8.41l11.21-1.58l1.29,9.16c0.36,2.52,2.27,3.97,4.79,3.62c2.52-0.36,3.97-2.27,3.62-4.8
		l-0.76-5.42c-1.64-11.68-21.79-12.66-24.22-29.95l-0.79-5.61c-1.31-9.34,3.91-16.27,13.26-17.58c9.25-1.3,16.29,4,17.58,13.25
		l1.18,8.41l-11.22,1.58l-1.29-9.16c-0.35-2.52-2.27-3.97-4.79-3.62c-2.52,0.36-3.97,2.27-3.62,4.8l0.76,5.42
		c1.63,11.59,21.79,12.66,24.22,29.95l0.79,5.61c1.31,9.34-3.91,16.27-13.25,17.59C302.21,220.08,295.18,214.78,293.88,205.52"/>
	<polygon class="st0" points="154.01,264.05 147.63,264.94 147.36,263 149.21,262.63 147.7,251.83 145.47,252.15 145.71,254.53 
		143.91,254.79 143.28,250.25 154.14,248.73 154.78,253.26 152.98,253.51 152.55,251.15 150.33,251.46 151.85,262.26 153.73,262.1 	
		"/>
	<polygon class="st0" points="164.46,257.07 164.19,255.83 161.36,256.23 161.99,260.72 165.72,260.2 165.56,258.37 167.35,258.12 
		167.91,262.09 158.12,263.47 157.85,261.52 159.38,261.22 157.84,250.28 156.28,250.41 156.01,248.46 165.8,247.09 166.34,250.95 
		164.55,251.2 164.21,249.51 160.49,250.04 161.08,254.23 163.9,253.83 163.83,252.58 165.45,252.36 166.08,256.85 	"/>
	<polygon class="st0" points="176.64,258.95 178.01,258.69 174.94,254.98 173.15,259.37 174.53,259.25 174.79,261.12 169.8,261.82 
		169.53,259.88 170.59,259.69 173.26,253.44 169.26,248.65 168.2,248.73 167.93,246.79 173.29,246.03 173.55,247.91 172.31,248.15 
		175.12,251.57 176.76,247.53 175.52,247.63 175.26,245.76 180.09,245.08 180.37,247.02 179.32,247.23 176.83,253.11 181.07,258.22 
		182.15,258.11 182.42,260.05 176.9,260.83 	"/>
	<path class="st0" d="M183.31,257.95l1.14-0.23l1.98-13.53l3.66-0.51l5.63,12.46l1.16-0.1l0.27,1.94l-5.44,0.76l-0.26-1.83
		l1.55-0.31l-1.1-2.46l-4.55,0.64l-0.38,2.67l1.59-0.13l0.26,1.83l-5.25,0.74L183.31,257.95z M191.03,252.02l-1.11-2.51
		c-0.53-1.23-1.01-2.35-1.43-3.41l-0.04,0.01c-0.12,1.14-0.27,2.33-0.46,3.66l-0.37,2.73L191.03,252.02z"/>
	<path class="st0" d="M203.73,246.16l-0.4-2.14c-0.35-0.08-0.91-0.07-1.53,0.02c-1.5,0.21-1.97,0.94-1.84,1.89
		c0.15,1.08,0.66,1.45,2.99,2.29c3.04,1.09,3.87,1.94,4.18,4.16c0.38,2.7-0.91,4.56-4.42,5.05c-1.23,0.17-2.47,0.15-3.65-0.02
		l-0.54-4.11l1.79-0.25l0.39,2.17c0.53,0.1,1.19,0.1,1.87,0c1.6-0.23,2.12-1.05,1.96-2.17c-0.16-1.12-0.67-1.49-3.12-2.4
		c-2.79-1.02-3.72-1.84-4.04-4.15c-0.34-2.42,0.88-4.2,4.33-4.68c1.21-0.17,2.39-0.14,3.28,0l0.51,4.09L203.73,246.16z"/>
	<path class="st0" d="M240.13,241.57l-0.49-2.64c-0.16-0.02-0.57-0.07-1.09,0c-1.99,0.28-2.87,1.22-2.18,6.16
		c0.62,4.36,1.7,5.02,3.92,4.71c0.84-0.12,1.68-0.39,2.55-0.82l0.6,2.18c-0.97,0.45-2.15,0.83-3.24,0.98
		c-3.75,0.53-5.64-0.64-6.48-6.62c-0.92-6.52,0.9-8.34,4.6-8.86c1.03-0.14,2.03-0.13,2.98,0.02l0.61,4.63L240.13,241.57z"/>
	<polygon class="st0" points="245.34,249.23 246.87,248.92 245.33,237.98 243.77,238.11 243.5,236.17 249.1,235.38 249.38,237.32 
		247.96,237.59 248.54,241.69 253.51,240.99 252.93,236.89 251.5,237.03 251.23,235.08 256.8,234.3 257.08,236.24 255.55,236.54 
		257.09,247.49 258.64,247.36 258.91,249.3 253.34,250.09 253.06,248.14 254.48,247.88 253.84,243.34 248.87,244.04 249.5,248.58 
		250.94,248.44 251.21,250.38 245.61,251.17 	"/>
	<polygon class="st0" points="260.71,247.07 262.23,246.77 260.69,235.82 259.14,235.95 258.87,234.01 264.58,233.2 264.86,235.15 
		263.33,235.45 264.87,246.4 266.42,246.27 266.69,248.21 260.98,249.01 	"/>
	<path class="st0" d="M274.55,236.74l-0.49-2.64c-0.16-0.02-0.57-0.07-1.09,0c-1.99,0.28-2.87,1.22-2.18,6.16
		c0.61,4.36,1.7,5.02,3.92,4.71c0.84-0.12,1.68-0.39,2.55-0.82l0.6,2.18c-0.97,0.45-2.15,0.83-3.24,0.98
		c-3.74,0.53-5.64-0.64-6.48-6.62c-0.92-6.52,0.89-8.34,4.6-8.86c1.03-0.15,2.03-0.13,2.99,0.02l0.61,4.63L274.55,236.74z"/>
	<polygon class="st0" points="279.76,244.39 281.28,244.09 279.75,233.14 278.19,233.27 277.92,231.33 283.23,230.58 283.49,232.46 
		282.36,232.66 283.08,237.72 286.29,232.14 285.07,232.24 284.8,230.36 290.11,229.62 290.38,231.56 289.34,231.77 285.99,237.48 
		291.1,242.75 292.2,242.64 292.47,244.59 286.97,245.36 286.71,243.48 287.91,243.27 283.17,238.39 283.93,243.83 285.07,243.71 
		285.33,245.59 280.03,246.33 	"/>
	<polygon class="st0" points="300.43,237.96 300.16,236.72 297.33,237.12 297.96,241.61 301.68,241.09 301.53,239.26 303.32,239.01 
		303.88,242.98 294.09,244.36 293.81,242.42 295.35,242.11 293.81,231.17 292.25,231.3 291.98,229.35 301.77,227.98 302.31,231.84 
		300.52,232.09 300.18,230.4 296.46,230.93 297.05,235.12 299.87,234.72 299.8,233.47 301.42,233.25 302.05,237.74 	"/>
	<path class="st0" d="M306.22,242.65l-0.27-1.94l1.53-0.3l-1.54-10.94l-1.55,0.13l-0.27-1.94l5.01-0.71l4.85,7.35
		c0.84,1.29,1.6,2.6,2.34,4.03l0.06-0.01c-0.35-1.47-0.67-3.06-0.86-4.24l-0.83-5.89l-1.45,0.14l-0.27-1.92l5.13-0.72l0.27,1.94
		l-1.38,0.26l1.83,13l-3.43,0.48l-4.87-7.35c-0.84-1.29-1.6-2.59-2.34-4.03L308.1,230c0.35,1.47,0.69,3.05,0.86,4.24l0.83,5.89
		l1.45-0.13l0.27,1.92L306.22,242.65z"/>
	<path class="st1" d="M278.75,155.4l-0.84-5.99c-0.04-0.27,0.15-0.51,0.41-0.55l6.42-0.9c0.27-0.04,0.51,0.15,0.55,0.41l0.82,5.87
		c0.01,0.07,0.01,0.13-0.01,0.2l-1.84,6.72c-0.05,0.19-0.21,0.33-0.4,0.35l-2.19,0.31c-0.32,0.05-0.6-0.23-0.55-0.55l0.78-5.14
		c0.05-0.32-0.22-0.59-0.54-0.56l-2.09,0.24C279.02,155.84,278.78,155.66,278.75,155.4"/>
	<polygon class="st0" points="321.81,141.14 320.46,141.13 320.44,146.29 319.19,146.28 319.22,141.13 317.87,141.12 317.87,140.1 
		321.82,140.12 	"/>
	<polygon class="st0" points="324.23,140.13 325.09,144.49 325.11,144.49 326.02,140.14 327.86,140.14 327.84,146.32 326.69,146.31 
		326.71,141.39 326.7,141.39 325.58,146.31 324.61,146.31 323.53,141.37 323.52,141.37 323.49,146.3 322.35,146.3 322.38,140.12 	
		"/>
	<path class="st2" d="M282.85,252.11c-15.13,24.96-40.93,43.17-72.09,47.55c-39.69,5.58-77.21-12.81-97.96-44.13l-25.33,3.56
		c23.98,44.34,73.72,71.34,126.57,63.91c44.92-6.31,80.82-35.91,97.23-74.88L282.85,252.11z"/>
	<path class="st2" d="M102.88,163.68c12.76-32.89,42.45-58.09,79.87-63.34c37.41-5.26,72.91,10.78,94.23,38.88l25.99-3.65
		C277.98,94.42,230.16,69.88,179.47,77c-50.69,7.12-89.9,43.9-102.57,90.34L102.88,163.68z"/>
	<polygon class="st2" points="194.14,110.48 175.41,150.73 190.47,142.46 203.23,153.95 	"/>
	<polygon class="st2" points="184.97,125.65 169.87,123.93 181.08,134.02 	"/>
	<polygon class="st2" points="199.63,127.34 201.53,136.39 214.79,129.11 	"/>
</g>
</svg>
